<svg xmlns="http://www.w3.org/2000/svg" viewBox="0 0 209.83 57.19"><defs><style>.cls-1{fill:#006935}</style></defs><g id="Layer_2" data-name="Layer 2"><g id="Layer_1-2" data-name="Layer 1"><path class="cls-1" d="M98.6 20.01h8.57l-6.02 28.31h-8.57l3.27-15.33-11.81 15.33h-8.57l6.02-28.31h8.58l-3.24 15.16L98.6 20.01M106 41a9.72 9.72 0 0 0 1.86.2 4.23 4.23 0 0 0 3.14-1.13c.81-.81 1.38-2.18 2.15-5.62L116.41 20h23.18l-6 28.31h-8.9L129 27.77h-6l-2.22 9.59c-.81 3.44-1.74 7.77-5 9.83-1.91 1.21-4.78 1.54-7.05 1.54a23.74 23.74 0 0 1-4.33-.45L106 41m56.09-20.99h8.57l-6.03 28.31h-8.57l3.28-15.33-11.81 15.33h-8.57l6.02-28.31h8.58l-3.24 15.16 11.77-15.16m19.96 9.5l-.2.04-.29 2.15-3.52 16.62h-8.01l6.03-28.31h11.97l1.18 16.01-.21 1.95h.21l.73-1.95 7.92-16.01h11.98l-6.03 28.31h-8.01l3.52-16.62.69-2.15-.21-.04-9.66 18.81h-6.43l-1.66-18.81"/><path d="M69.12 0a3.64 3.64 0 0 0-.84.24c-9.61 2.69-28.58 0-28.58 0a33.92 33.92 0 0 0-21.1 7.95A34.9 34.9 0 0 0 6.34 27.36L.12 57.14l49.74-23a15 15 0 0 0 .3 9.26c1.65 4.39 4.39 4.6 5.17 4.6 4.1-.7 5.94-9.45 5.94-9.45L69.14.24s.08-.24 0-.24" fill="#95c11f"/><path class="cls-1" d="M50.16 43.37a15 15 0 0 1-.3-9.26L.12 57.14l-.12.05L55.56 48h-.23c-.79 0-3.52-.23-5.18-4.65"/></g></g></svg>